<svg xmlns="http://www.w3.org/2000/svg" viewBox="0 0 512 512">
  <defs>
    <linearGradient id="bg" x1="0%" y1="0%" x2="100%" y2="100%">
      <stop offset="0%" style="stop-color:#00c853"/>
      <stop offset="100%" style="stop-color:#007e33"/>
    </linearGradient>
  </defs>
  
  <!-- Background -->
  <rect width="512" height="512" rx="96" fill="url(#bg)"/>
  
  <!-- Calculator body -->
  <rect x="96" y="56" width="320" height="400" rx="36" fill="rgba(0,0,0,0.15)"/>
  <rect x="100" y="60" width="312" height="392" rx="34" fill="white" opacity="0.95"/>
  
  <!-- Display -->
  <rect x="132" y="92" width="248" height="80" rx="16" fill="#1a1a2e"/>
  <!-- Display dots to suggest digits -->
  <circle cx="332" cy="132" r="4" fill="#00e676"/>
  <circle cx="316" cy="132" r="4" fill="#00e676" opacity="0.6"/>
  <circle cx="300" cy="132" r="4" fill="#00e676" opacity="0.3"/>
  
  <!-- Row 1: function keys (green) -->
  <rect x="132" y="196" width="60" height="60" rx="12" fill="#00a000"/>
  <rect x="226" y="196" width="60" height="60" rx="12" fill="#00a000"/>
  <rect x="320" y="196" width="60" height="60" rx="12" fill="#ff6d00"/>
  
  <!-- Row 2: number keys (gray) -->
  <rect x="132" y="286" width="60" height="60" rx="12" fill="#eeeeee"/>
  <rect x="226" y="286" width="60" height="60" rx="12" fill="#eeeeee"/>
  <rect x="320" y="286" width="60" height="60" rx="12" fill="#ff6d00"/>
  
  <!-- Row 3: bottom keys -->
  <rect x="132" y="376" width="60" height="60" rx="12" fill="#eeeeee"/>
  <rect x="226" y="376" width="60" height="60" rx="12" fill="#eeeeee"/>
  <rect x="320" y="376" width="60" height="60" rx="12" fill="#00c853"/>
</svg>
