<svg xmlns="http://www.w3.org/2000/svg" viewBox="0 0 512 512" width="512" height="512">
  <defs>
    <!-- Background gradient -->
    <linearGradient id="bgGrad" x1="0" y1="0" x2="1" y2="1">
      <stop offset="0%" stop-color="#5CB85C"/>
      <stop offset="100%" stop-color="#2E7D32"/>
    </linearGradient>
    <!-- Calculator body gradient -->
    <linearGradient id="bodyGrad" x1="0" y1="0" x2="0" y2="1">
      <stop offset="0%" stop-color="#FDFDFD"/>
      <stop offset="100%" stop-color="#E8E8E8"/>
    </linearGradient>
    <!-- Display gradient -->
    <linearGradient id="displayGrad" x1="0" y1="0" x2="0" y2="1">
      <stop offset="0%" stop-color="#1A1A2E"/>
      <stop offset="100%" stop-color="#16213E"/>
    </linearGradient>
    <!-- Green button gradient -->
    <linearGradient id="greenBtn" x1="0" y1="0" x2="0" y2="1">
      <stop offset="0%" stop-color="#6ABF47"/>
      <stop offset="100%" stop-color="#4A8C2A"/>
    </linearGradient>
    <!-- Orange button gradient -->
    <linearGradient id="orangeBtn" x1="0" y1="0" x2="0" y2="1">
      <stop offset="0%" stop-color="#FF8C42"/>
      <stop offset="100%" stop-color="#E8621A"/>
    </linearGradient>
    <!-- Gray button gradient -->
    <linearGradient id="grayBtn" x1="0" y1="0" x2="0" y2="1">
      <stop offset="0%" stop-color="#E0E0E0"/>
      <stop offset="100%" stop-color="#BDBDBD"/>
    </linearGradient>
    <!-- Accent green button -->
    <linearGradient id="accentBtn" x1="0" y1="0" x2="0" y2="1">
      <stop offset="0%" stop-color="#4CAF50"/>
      <stop offset="100%" stop-color="#2E7D32"/>
    </linearGradient>
    <!-- Shadow filter -->
    <filter id="shadow" x="-10%" y="-10%" width="130%" height="130%">
      <feDropShadow dx="0" dy="4" stdDeviation="8" flood-color="#000" flood-opacity="0.3"/>
    </filter>
    <filter id="btnShadow" x="-20%" y="-20%" width="140%" height="160%">
      <feDropShadow dx="0" dy="2" stdDeviation="3" flood-color="#000" flood-opacity="0.15"/>
    </filter>
    <filter id="innerGlow">
      <feDropShadow dx="0" dy="1" stdDeviation="1" flood-color="#FFF" flood-opacity="0.3"/>
    </filter>
  </defs>

  <!-- Background rounded square -->
  <rect x="0" y="0" width="512" height="512" rx="96" ry="96" fill="url(#bgGrad)"/>
  <!-- Subtle highlight on top-left -->
  <rect x="0" y="0" width="512" height="256" rx="96" ry="96" fill="url(#bgGrad)" opacity="0.15" style="filter: blur(2px)"/>

  <!-- Calculator body -->
  <rect x="88" y="64" width="336" height="400" rx="36" ry="36" fill="url(#bodyGrad)" filter="url(#shadow)"/>

  <!-- Display -->
  <rect x="116" y="92" width="280" height="88" rx="16" ry="16" fill="url(#displayGrad)"/>
  <!-- Display dots -->
  <circle cx="336" cy="136" r="4" fill="#4A5568" opacity="0.6"/>
  <circle cx="356" cy="136" r="4" fill="#4A5568" opacity="0.6"/>
  <circle cx="376" cy="136" r="4" fill="#48BB78"/>

  <!-- Row 1: Green, Green, Orange -->
  <rect x="116" y="204" width="76" height="60" rx="14" ry="14" fill="url(#greenBtn)" filter="url(#btnShadow)"/>
  <rect x="218" y="204" width="76" height="60" rx="14" ry="14" fill="url(#greenBtn)" filter="url(#btnShadow)"/>
  <rect x="320" y="204" width="76" height="60" rx="14" ry="14" fill="url(#orangeBtn)" filter="url(#btnShadow)"/>

  <!-- Row 2: Gray, Gray, Orange -->
  <rect x="116" y="284" width="76" height="60" rx="14" ry="14" fill="url(#grayBtn)" filter="url(#btnShadow)"/>
  <rect x="218" y="284" width="76" height="60" rx="14" ry="14" fill="url(#grayBtn)" filter="url(#btnShadow)"/>
  <rect x="320" y="284" width="76" height="60" rx="14" ry="14" fill="url(#orangeBtn)" filter="url(#btnShadow)"/>

  <!-- Row 3: Gray, Gray, Accent Green -->
  <rect x="116" y="364" width="76" height="60" rx="14" ry="14" fill="url(#grayBtn)" filter="url(#btnShadow)"/>
  <rect x="218" y="364" width="76" height="60" rx="14" ry="14" fill="url(#grayBtn)" filter="url(#btnShadow)"/>
  <rect x="320" y="364" width="76" height="60" rx="14" ry="14" fill="url(#accentBtn)" filter="url(#btnShadow)"/>
</svg>
