<svg width="1000" height="1000" viewBox="0 0 1000 1000" fill="none" xmlns="http://www.w3.org/2000/svg">
<g clip-path="url(#clip0_4_8)">
<rect width="1000" height="1000" rx="100" fill="url(#paint0_linear_4_8)"/>
<rect x="238" y="380" width="113" height="113" rx="40" fill="white"/>
<rect x="375" y="380" width="112" height="113" rx="40" fill="white"/>
<rect x="512" y="380" width="113" height="113" rx="40" fill="white"/>
<rect x="649" y="380" width="113" height="113" rx="40" fill="#F2FF00"/>
<rect x="238" y="533" width="113" height="113" rx="40" fill="white"/>
<rect x="238" y="686" width="113" height="114" rx="40" fill="white"/>
<rect x="375" y="533" width="112" height="113" rx="40" fill="white"/>
<rect x="375" y="686" width="112" height="114" rx="40" fill="white"/>
<rect x="512" y="533" width="113" height="113" rx="40" fill="white"/>
<rect x="512" y="686" width="113" height="113" rx="40" fill="white"/>
<rect x="649" y="533" width="113" height="266" rx="40" fill="white"/>
<rect x="238" y="200" width="524" height="129" rx="40" fill="white"/>
</g>
<defs>
<linearGradient id="paint0_linear_4_8" x1="1000" y1="1000" x2="0" y2="0" gradientUnits="userSpaceOnUse">
<stop stop-color="#00460B"/>
<stop offset="1" stop-color="#56FA5E"/>
</linearGradient>
<clipPath id="clip0_4_8">
<rect width="1000" height="1000" fill="white"/>
</clipPath>
</defs>
</svg>
